<?xml version="1.0" encoding="utf-8"?>
<svg viewBox="0 0 1248 410" width="1248px" height="410px" xmlns="http://www.w3.org/2000/svg" xmlns:bx="https://boxy-svg.com">
  <defs>
    <path id="path-0" d="M 459.45974735833033 92.26233841794458 L 491.8423860101983 124.6449770698126" style="fill: none;"/>
    <path id="path-1" d="M 503.107 101.708 C 541.095 100.731 572.751 103.852 603.429 106.92 C 612.04 108.121 612.642 111.852 615.807 113.434 C 616.723 113.892 616.711 111.553 617.436 110.829 C 624.791 97.468 628.944 83.142 636.327 72.067 L 636.653 71.09 C 636.96 70.169 638.608 67.964 638.608 67.507" style="fill: none;"/>
    <bx:grid x="0" y="0" width="32.911" height="30.966"/>
    <linearGradient gradientUnits="userSpaceOnUse" x1="1115.336" y1="61.932" x2="1115.336" y2="394.298" id="gradient-1" gradientTransform="matrix(1, 0, 0, 1, 1779.565186, 106.254173)">
      <stop offset="0" style="stop-color: rgba(134, 212, 222, 1)"/>
      <stop offset="1" style="stop-color: rgba(54, 183, 200, 1)"/>
    </linearGradient>
    <linearGradient gradientUnits="userSpaceOnUse" x1="172.321" y1="130.893" x2="172.321" y2="308.092" id="gradient-2">
      <stop offset="0" style="stop-color: rgba(216, 116, 22, 1)"/>
      <stop offset="1" style="stop-color: rgba(124, 66, 13, 1)"/>
    </linearGradient>
  </defs>
  <desc>wichtel gopher</desc>
  <title>wichtelbot-cover</title>
  <rect width="1248" height="350" style="stroke-linejoin: round; stroke-width: 0px; stroke: rgb(0, 0, 0); fill: rgba(33, 45, 61, 0);" x="1779.565" y="106.254"/>
  <ellipse style="paint-order: stroke; stroke: rgb(0, 0, 0); stroke-width: 0px; fill: rgb(118, 185, 194);" cx="2802.31" cy="212.091" rx="29.981" ry="34.657"/>
  <path style="fill: rgb(250, 220, 164); stroke: rgb(0, 0, 0); stroke-width: 0px; transform-origin: 2763.15px 369.077px;" d="M 2771.773 348.663 C 2753.708 349.013 2706.944 370.021 2743.18 376.392 C 2746.556 376.072 2712.301 385.654 2753.466 390.963 C 2790.029 391.795 2800.34 356.663 2795.349 347.177 L 2771.773 348.663 Z"/>
  <path style="stroke: rgb(0, 0, 0); paint-order: fill; stroke-width: 5px; stroke-opacity: 0; fill: url('#gradient-1');" d="M 2999.318 399.341 C 3013.665 441.595 3015.401 451.575 2987.11 477.098 C 2952.25 508.547 2821.455 512.044 2789.557 464.805 C 2772.329 420.382 2786.736 312.313 2782.545 285.691 C 2758.148 158.35 2944.583 125.949 2990.073 231.062 C 3009.779 276.594 2982.201 348.928 2999.318 399.341 Z"/>
  <ellipse style="fill: rgb(255, 255, 255); paint-order: stroke; stroke-width: 6px; stroke: rgb(255, 255, 255);" cx="2830.843" cy="244.812" rx="41.015" ry="37.623"/>
  <ellipse style="fill: rgb(255, 255, 255); paint-order: stroke; stroke-width: 6px; stroke: rgb(255, 255, 255); transform-origin: 2922.93px 246.64px;" cx="2922.944" cy="246.64" rx="43.763" ry="41.659"/>
  <path style="fill: rgb(255, 255, 255); paint-order: fill; stroke: rgb(0, 0, 0); stroke-width: 0px;" d="M 2850.113 292.569 C 2849.919 293.121 2849.219 301.556 2849.219 302.568 C 2849.219 302.77 2849.143 307.851 2849.143 309.163 C 2849.143 310.465 2848.762 313.141 2850.189 317.885 C 2851.067 320.816 2850.97 321.194 2852.128 322.992 C 2853.648 325.349 2859.35 325.956 2861.599 322.779 C 2863.326 320.342 2863.824 313.709 2863.838 313.525 C 2864.254 307.712 2864.21 301.216 2864.21 299.269 C 2864.21 299.087 2863.344 293.141 2862.793 292.356 C 2861.694 290.788 2850.189 291.065 2850.189 292.569"/>
  <g transform="matrix(0.78393, 0, 0, 0.78393, 2690.481689, 168.178497)" style="">
    <g>
      <ellipse style="stroke: rgb(0, 0, 0); paint-order: stroke; stroke-width: 12.6479px;" cx="20.34" cy="90.046" rx="12.335" ry="12.678" transform="matrix(0.999709, 0.024132, -0.024132, 0.999709, 260.816685, 18.074693)"/>
      <ellipse style="stroke: rgb(140, 37, 37); fill: rgb(255, 255, 255); stroke-opacity: 0; paint-order: stroke; stroke-width: 12.6479px;" cx="8.84" cy="101.025" rx="4.968" ry="5.311" transform="matrix(0.999709, 0.024132, -0.024132, 0.999709, 261.361208, 15.799017)"/>
    </g>
  </g>
  <ellipse style="stroke: rgb(0, 0, 0); paint-order: stroke; stroke-width: 12.6479px;" cx="20.34" cy="90.046" rx="9.67" ry="9.939" transform="matrix(0.999709, 0.024132, -0.024132, 0.999709, 2817.116215, 162.567358)"/>
  <ellipse style="stroke: rgb(140, 37, 37); fill: rgb(255, 255, 255); stroke-opacity: 0; paint-order: stroke; stroke-width: 12.6479px;" cx="8.84" cy="101.025" rx="3.895" ry="4.163" transform="matrix(0.999709, 0.024132, -0.024132, 0.999709, 2820.663576, 159.340676)"/>
  <path d="M 1930.698 264.239 C 1936.466 247.343 1915.443 263.996 1915.443 277.677 C 1915.443 291.358 1920.831 306.303 1934.646 308.764 C 1936.818 309.15 1946.129 300.136 1947.917 297.822 C 1953.063 291.164 1943.661 291.444 1939.713 287.388 C 1931.385 278.836 1926.111 277.677 1930.698 264.239 Z" style="stroke: rgb(0, 0, 0); stroke-width: 0px; fill: rgb(244, 134, 32); transform-box: fill-box; transform-origin: 263.495% 145.354%;" transform="matrix(-1, 0, 0, -1, 0.000217, -0.00004)"/>
  <g transform="matrix(1, 0, 0, 1, 1774.404907, 99.225395)">
    <path style="stroke: rgb(0, 0, 0); transform-box: fill-box; transform-origin: 67.5765% 62.3489%; stroke-width: 0px; paint-order: fill; fill-rule: evenodd; fill: url('#gradient-2');" d="M 28.101 233.462 C 28.083 233.444 32.463 226.558 40.427 217.21 C 43.681 213.39 33.925 201.9 38.32 197.559 C 42.069 193.856 60.198 201.109 61.005 195.028 C 61.565 190.811 56.981 176.81 61.005 173.063 C 66.344 168.091 75.698 177.334 85.27 173.278 C 91.713 170.548 86.489 155.341 94.69 152.523 C 98.082 151.357 105.904 155.909 114.421 158.643 C 121.05 160.771 124.952 135.627 131.638 135.627 C 140.063 135.627 148.941 149.326 155.303 147.702 C 162.061 145.977 165.253 129.662 172.974 130.967 C 179.057 131.995 181.755 146.238 189.095 149.247 C 194.569 151.491 208.604 137.87 214.501 140.82 C 220.998 144.071 217.509 158.089 224.162 161.871 C 230.457 165.45 243.568 151.65 249.675 155.407 C 255.837 159.197 249.01 173.947 254.657 177.621 C 259.495 180.769 272.226 169.154 277.254 172.504 C 280.137 174.425 277.59 183.068 280.603 189.413 C 282.052 192.465 294.661 185.623 296.619 187.539 C 299.633 190.489 293.63 203.703 296.246 206 C 303.996 212.808 313.642 210.472 316.71 214.692 C 320.395 219.761 308.776 222.701 310.119 228.523 C 315.555 252.1 319.205 302.213 179.873 307.682 C 6.136 314.5 28.101 234.105 28.101 233.462 Z"/>
    <g transform="matrix(1, 0, 0, 1, -136.788193, -23.269583)" style="transform-origin: 367.697px 258.584px;">
      <g transform="matrix(0.78393, 0, 0, 0.78393, 524.959351, 230.335922)">
        <ellipse style="stroke: rgb(0, 0, 0); paint-order: stroke; stroke-width: 0px;" cx="20.34" cy="90.046" rx="12.335" ry="12.678" transform="matrix(0.999709, 0.024132, -0.024132, 0.999709, -273.2709, -32.278116)"/>
      </g>
      <path style="stroke: rgb(0, 0, 0); stroke-width: 0px;" d="M 341.713 309.865 C 321.923 308.536 315.064 291.688 315.064 291.688 C 323.606 297.967 341.896 298.233 350.637 297.307 C 339.073 301.619 351.723 310.536 341.713 309.865 Z"/>
      <path style="fill: rgb(216, 216, 216); stroke: rgb(0, 0, 0); fill-opacity: 0; stroke-linecap: round; stroke-width: 0px;" d="M 304.235 258.878 C 304.235 246.69 334.878 249.619 342.873 265.817 C 351.932 273.234 367.779 245.062 371.745 250.241"/>
      <ellipse style="stroke: rgb(0, 0, 0); fill: rgb(255, 255, 255); stroke-opacity: 0; stroke-width: 0px;" cx="329.156" cy="276.006" rx="4.201" ry="6.863"/>
      <ellipse style="stroke: rgb(0, 0, 0); paint-order: stroke; stroke-width: 0px;" cx="20.34" cy="90.046" rx="9.67" ry="9.939" transform="matrix(0.999709, 0.024132, -0.024132, 0.999709, 334.653386, 185.475179)"/>
      <ellipse style="stroke: rgb(0, 0, 0); fill: rgb(255, 255, 255); stroke-opacity: 0; stroke-width: 0px;" cx="356.999" cy="276.006" rx="4.201" ry="6.863"/>
    </g>
  </g>
  <ellipse style="stroke-opacity: 0; stroke: rgb(149, 223, 244); fill: rgb(180, 226, 231);" cx="2923.531" cy="300.438" rx="15.177" ry="7.306"/>
  <path style="paint-order: stroke; stroke: rgb(0, 0, 0); stroke-width: 0px; fill: rgb(144, 229, 241); transform-origin: 2985.74px 205.246px;" d="M 2960.054 197.45 C 2963.059 159.347 3020.992 169.339 3010.069 214.782 C 3003.779 235.998 2978.857 240.247 2978.862 233.73" transform="matrix(0.999709, 0.024132, -0.024132, 0.999709, 0, -0.000001)"/>
  <path style="fill: rgb(255, 255, 255); paint-order: fill; stroke: rgb(0, 0, 0); stroke-width: 0px;" d="M 2872.304 294.399 C 2872.112 294.951 2871.41 300.668 2871.41 301.681 C 2871.41 301.883 2871.003 307.165 2871.003 308.475 C 2871.003 309.777 2870.445 313.717 2871.522 318.596 C 2872.234 321.826 2872.461 322.584 2874.97 325.383 C 2876.888 327.521 2881.484 324.977 2883.735 321.802 C 2885.462 319.366 2885.766 314.129 2885.78 313.945 C 2886.196 308.133 2886.402 303.046 2886.402 301.099 C 2886.402 300.914 2885.537 294.971 2884.985 294.183 C 2883.887 292.618 2872.38 292.893 2872.38 294.396"/>
  <path d="M 2868.363 299.024 C 2851.757 300.472 2835.729 303.642 2839.757 293.728 C 2843.785 283.813 2850.85 283.728 2857.909 283.88 C 2861.426 283.955 2870.123 283.939 2873.582 283.579 C 2876.564 283.268 2883.227 282.66 2894.903 291.558 C 2906.578 300.454 2890.495 306.712 2868.363 299.024 Z" style="fill: rgb(250, 220, 164); paint-order: fill; stroke: rgb(0, 0, 0); stroke-width: 0px; transform-origin: 2872.22px 295.987px;"/>
  <ellipse style="stroke: rgb(0, 0, 0); paint-order: stroke; stroke-width: 6px;" cx="2864.627" cy="282.595" rx="10.873" ry="5.704"/>
  <path d="M 2987.11 208.779 C 2987.11 215.021 2983.21 220.082 2978.401 220.082 C 2978.087 220.082 2977.779 220.06 2977.475 220.018 C 2977.45 214.645 2974.249 210.042 2969.707 208.099 C 2969.977 202.172 2973.765 197.476 2978.401 197.476 C 2983.21 197.476 2987.11 202.536 2987.11 208.779 Z" style="stroke: rgb(0, 0, 0);"/>
  <ellipse style="stroke-opacity: 0; stroke: rgb(149, 223, 244); fill: rgb(180, 226, 231);" cx="2818.225" cy="295.605" rx="14.066" ry="7.306"/>
  <path style="fill: rgb(250, 220, 164); stroke: rgb(0, 0, 0); stroke-width: 0px;" d="M 2889 366.557 C 2871.698 365.762 2840.058 387.235 2867.8 393.107 C 2870.385 392.815 2844.161 401.646 2875.678 406.539 C 2903.667 407.306 2930.115 375.633 2921.06 372.841 C 2900.465 366.492 2900.3 367.28 2889 366.557 Z"/>
  <path style="stroke: rgb(0, 0, 0); stroke-width: 0px; fill: rgb(201, 93, 20); transform-box: fill-box; transform-origin: 255.361% -87.9678%;" d="M 1904.393 385.075 C 1878.476 387.962 1887.398 431.069 1913.315 428.182 C 1913.315 428.182 1953.757 417.413 1925.975 418.34 C 1898.193 419.267 1905.036 395.104 1912.997 392.948 C 1920.958 390.793 1904.393 384.878 1904.393 385.075 Z"/>
  <g transform="matrix(1, 0, 0, 1, 1782.968018, 96.619835)">
    <path style="stroke: rgb(0, 0, 0); transform-box: fill-box; transform-origin: -40.2152% 214.156%; stroke-width: 0px; fill: rgb(244, 134, 32);" d="M 331.446 162.417 C 342.464 192.25 248 214.05 254.965 166.736 C 257.283 185.332 320.428 132.584 331.446 162.417 Z" transform="matrix(-1, 0, 0, -1, 0.000015, -0.000049)"/>
    <path style="stroke: rgb(0, 0, 0); transform-box: fill-box; transform-origin: -27.1065% 202.499%; stroke-width: 0px; fill: rgb(201, 93, 20);" d="M 277.272 134.629 C 262.917 143.754 244.761 176.998 246.727 184.029 C 265.054 156.149 310.276 174.656 326.974 173.881 C 343.671 173.105 319.844 107.565 277.272 134.629 Z" transform="matrix(-1, 0, 0, -1, -0.000012, 0.000019)"/>
  </g>
  <path style="stroke: rgb(0, 0, 0); stroke-width: 0px; fill: rgb(244, 134, 32); transform-origin: 1999.31px 343.902px;" d="M 2077.574 395.548 C 2091.343 366.771 1990.035 365.117 1994.75 406.139 C 1998.389 389.061 2063.806 424.327 2077.574 395.548 Z"/>
  <g transform="matrix(0.876621, 0.045942, -0.033278, 0.634978, 1440.463867, 416.452911)" style="transform-origin: 554.424px -74.481px;">
    <path d="M 585.232 -186.119 C 585.232 -186.119 606.437 -173.561 612.352 -164.666 C 619.637 -153.711 619.031 -133.474 619.031 -133.474 L 617.457 -13.851 L 585.448 -13.851 L 580.677 -19.767 L 580.677 -22.919 C 583.372 -23.692 585.232 -25.335 585.232 -27.236 C 585.232 -29.137 583.372 -30.781 580.677 -31.553 L 580.677 -34.646 C 583.372 -35.418 585.232 -37.061 585.232 -38.963 C 585.232 -40.864 583.372 -42.507 580.677 -43.28 L 580.677 -46.372 C 583.372 -47.145 585.232 -48.788 585.232 -50.689 C 585.232 -52.591 583.372 -54.234 580.677 -55.006 L 580.677 -58.099 C 583.372 -58.872 585.232 -60.515 585.232 -62.416 C 585.232 -64.317 583.372 -65.961 580.677 -66.733 L 580.677 -69.826 C 583.372 -70.598 585.232 -72.241 585.232 -74.143 C 585.232 -76.044 583.372 -77.687 580.677 -78.46 L 580.677 -81.082 C 585.232 -87.348 587.956 -90.176 585.232 -98.476 L 585.232 -186.119 Z" style="fill: rgb(216, 216, 216); stroke: rgb(0, 0, 0); stroke-width: 0px;"/>
    <rect x="591.501" y="-136.767" width="6.682" height="106.109" style="stroke: rgb(0, 0, 0); stroke-opacity: 0; fill: rgb(255, 255, 255); stroke-width: 0px;" rx="3.911" ry="3.911"/>
    <rect x="585.848" y="-6.565" width="27.065" height="55.004" style="stroke: rgb(0, 0, 0); fill: rgb(130, 107, 82); stroke-width: 0px;" rx="11.347" ry="11.347"/>
    <rect x="574.786" y="-13.851" width="50.271" height="11.815" style="stroke-miterlimit: 4.15; stroke: rgb(0, 0, 0); fill: rgb(80, 64, 64); stroke-width: 0px;" rx="4.274" ry="4.274"/>
    <text style="fill: rgb(255, 255, 255); font-family: 'agave NF'; font-size: 26.502px; font-weight: 700; letter-spacing: -0.7px; line-height: 42.4033px; stroke-width: 0px; word-spacing: -0.9px; white-space: pre; transform-box: fill-box; transform-origin: 45.0238px 13.2957px;" transform="matrix(0, -1.169721, 0.640752, 0, 92.130333, -179.003632)" x="470.535" y="108.548">Borrow</text>
  </g>
  <path style="stroke: rgb(0, 0, 0); stroke-width: 0px; fill: rgb(201, 93, 20); transform-origin: 2002.93px 347.469px;" d="M 2022.314 439.582 C 2008.58 433.953 1992.462 407.242 1994.822 400.535 C 2011.42 422.374 2057.424 397.448 2073.969 395.114 C 2090.515 392.779 2063.048 456.277 2022.314 439.582 Z"/>
  <path d="M 1817.649 409.551 C 1825.477 426.563 1801.611 412.013 1801.611 396.913 C 1801.611 381.811 1805.65 369.378 1817.649 366.662 C 1819.535 366.234 1829.833 366.823 1831.385 369.378 C 1835.855 376.727 1828.706 381.473 1825.276 385.95 C 1818.043 395.392 1814.334 402.346 1817.649 409.551 Z" style="stroke: rgb(0, 0, 0); stroke-width: 0px; fill: rgb(201, 93, 20); transform-box: fill-box; transform-origin: 567.27% -18.0067%;"/>
  <path d="M 1838.812 433.813 C 1849.648 457.268 1816.614 437.211 1816.614 416.391 C 1816.614 395.572 1822.203 378.431 1838.812 374.686 C 1841.424 374.098 1855.675 374.909 1857.826 378.431 C 1864.012 388.563 1854.116 395.107 1849.368 401.28 C 1839.356 414.295 1834.223 423.879 1838.812 433.813 Z" style="stroke: rgb(0, 0, 0); stroke-width: 0px; fill: rgb(201, 93, 20); transform-box: fill-box; transform-origin: 466.083% -35.1765%;"/>
  <path d="M 1867.863 440.736 C 1878.698 464.191 1845.664 444.134 1845.664 423.314 C 1845.664 402.495 1851.255 385.354 1867.863 381.609 C 1870.474 381.021 1884.726 381.832 1886.876 385.354 C 1893.062 395.486 1883.166 402.03 1878.42 408.203 C 1868.408 421.218 1863.273 430.802 1867.863 440.736 Z" style="stroke: rgb(0, 0, 0); stroke-width: 0px; fill: rgb(201, 93, 20); transform-box: fill-box; transform-origin: 400.394% -45.6614%;"/>
  <path d="M 2147.526 302.225 L 2147.526 296.308 L 2153.443 296.308 L 2153.443 254.892 L 2147.526 254.892 L 2147.526 248.975 L 2171.193 248.975 L 2171.193 254.892 L 2165.276 254.892 L 2165.276 296.308 L 2177.109 296.308 L 2177.109 290.392 L 2183.026 290.392 L 2183.026 284.475 L 2188.943 284.475 L 2188.943 302.225 L 2147.526 302.225 Z M 2194.85 296.308 L 2194.85 272.642 L 2200.767 272.642 L 2200.767 266.725 L 2230.35 266.725 L 2230.35 272.642 L 2236.267 272.642 L 2236.267 296.308 L 2230.35 296.308 L 2230.35 302.225 L 2200.767 302.225 L 2200.767 296.308 L 2194.85 296.308 Z M 2206.683 296.308 L 2224.433 296.308 L 2224.433 272.642 L 2206.683 272.642 L 2206.683 296.308 Z M 2242.174 302.225 L 2242.174 266.725 L 2259.924 266.725 L 2259.924 272.642 L 2265.841 272.642 L 2265.841 266.725 L 2277.674 266.725 L 2277.674 272.642 L 2283.591 272.642 L 2283.591 302.225 L 2271.757 302.225 L 2271.757 278.558 L 2265.841 278.558 L 2265.841 296.308 L 2259.924 296.308 L 2259.924 278.558 L 2254.007 278.558 L 2254.007 302.225 L 2242.174 302.225 Z M 2289.51 302.225 L 2289.51 266.725 L 2307.26 266.725 L 2307.26 272.642 L 2313.177 272.642 L 2313.177 266.725 L 2325.01 266.725 L 2325.01 272.642 L 2330.927 272.642 L 2330.927 302.225 L 2319.094 302.225 L 2319.094 278.558 L 2313.177 278.558 L 2313.177 296.308 L 2307.26 296.308 L 2307.26 278.558 L 2301.344 278.558 L 2301.344 302.225 L 2289.51 302.225 Z M 2348.668 302.225 L 2348.668 296.308 L 2354.584 296.308 L 2354.584 272.642 L 2348.668 272.642 L 2348.668 266.725 L 2366.418 266.725 L 2366.418 296.308 L 2372.334 296.308 L 2372.334 302.225 L 2348.668 302.225 Z M 2354.584 260.808 L 2354.584 248.975 L 2366.418 248.975 L 2366.418 260.808 L 2354.584 260.808 Z M 2384.159 302.225 L 2384.159 296.308 L 2390.075 296.308 L 2390.075 290.392 L 2395.992 290.392 L 2395.992 278.558 L 2390.075 278.558 L 2390.075 272.642 L 2384.159 272.642 L 2384.159 266.725 L 2395.992 266.725 L 2395.992 272.642 L 2401.909 272.642 L 2401.909 278.558 L 2407.825 278.558 L 2407.825 272.642 L 2413.742 272.642 L 2413.742 266.725 L 2425.575 266.725 L 2425.575 272.642 L 2419.659 272.642 L 2419.659 278.558 L 2413.742 278.558 L 2413.742 290.392 L 2419.659 290.392 L 2419.659 296.308 L 2425.575 296.308 L 2425.575 302.225 L 2413.742 302.225 L 2413.742 296.308 L 2407.825 296.308 L 2407.825 290.392 L 2401.909 290.392 L 2401.909 296.308 L 2395.992 296.308 L 2395.992 302.225 L 2384.159 302.225 Z M 2478.819 302.225 L 2478.819 296.308 L 2484.735 296.308 L 2484.735 254.892 L 2478.819 254.892 L 2478.819 248.975 L 2514.319 248.975 L 2514.319 254.892 L 2520.235 254.892 L 2520.235 272.642 L 2514.319 272.642 L 2514.319 278.558 L 2520.235 278.558 L 2520.235 296.308 L 2514.319 296.308 L 2514.319 302.225 L 2478.819 302.225 Z M 2496.569 296.308 L 2508.402 296.308 L 2508.402 278.558 L 2496.569 278.558 L 2496.569 296.308 Z M 2496.569 272.642 L 2508.402 272.642 L 2508.402 254.892 L 2496.569 254.892 L 2496.569 272.642 Z M 2555.726 296.308 L 2561.643 296.308 L 2561.643 302.225 L 2537.976 302.225 L 2537.976 296.308 L 2543.893 296.308 L 2543.893 254.892 L 2537.976 254.892 L 2537.976 248.975 L 2555.726 248.975 L 2555.726 296.308 Z M 2573.479 296.308 L 2573.479 272.642 L 2579.396 272.642 L 2579.396 266.725 L 2608.979 266.725 L 2608.979 272.642 L 2614.896 272.642 L 2614.896 296.308 L 2608.979 296.308 L 2608.979 302.225 L 2579.396 302.225 L 2579.396 296.308 L 2573.479 296.308 Z M 2585.312 296.308 L 2603.062 296.308 L 2603.062 272.642 L 2585.312 272.642 L 2585.312 296.308 Z M 2620.803 308.142 L 2620.803 302.225 L 2632.636 302.225 L 2632.636 308.142 L 2644.47 308.142 L 2644.47 296.308 L 2626.72 296.308 L 2626.72 290.392 L 2620.803 290.392 L 2620.803 272.642 L 2626.72 272.642 L 2626.72 266.725 L 2644.47 266.725 L 2644.47 272.642 L 2632.636 272.642 L 2632.636 290.392 L 2644.47 290.392 L 2644.47 272.642 L 2650.386 272.642 L 2650.386 266.725 L 2662.22 266.725 L 2662.22 272.642 L 2656.303 272.642 L 2656.303 308.142 L 2650.386 308.142 L 2650.386 314.058 L 2626.72 314.058 L 2626.72 308.142 L 2620.803 308.142 Z" style="fill: rgb(255, 255, 255);"/>
  <path style="fill: rgb(216, 216, 216); stroke: rgb(0, 0, 0); stroke-width: 5px; stroke-linecap: round; stroke-linejoin: round; fill-opacity: 0;" d="M 1952.14 327.14 C 1959.325 346.239 1988.925 352.625 2001.694 329.436"/>
  <path style="stroke: rgb(0, 0, 0); fill: rgb(134, 212, 222); stroke-width: 0px;" d="M 796.825 355.983 C 790.595 368.3 763.933 387.592 735.677 387.592 L 655.572 380.95 C 656.697 366.946 661.546 345.925 670.489 315.155 C 681.739 276.449 697.686 219.426 772.533 235.249 C 794.025 176.266 848.234 192.877 863.11 196.297 C 872.709 198.504 888.264 196.061 890.324 186.276 C 902.051 130.571 917.629 153.979 941.366 150.937 C 970.66 147.183 1017.094 141.877 1033.669 201.874 C 1036.042 210.463 1051.644 169.36 1073.813 174.084 C 1284.267 218.927 1114.393 278.613 1097.106 305.763 C 1113.684 316.124 1097.93 374.346 1090.527 381.434 L 811.998 380.95 C 801.52 374.346 796.825 364.908 796.825 355.983 Z"/>
  <path style="stroke: rgb(0, 0, 0); stroke-width: 0px; fill: rgb(247, 145, 51);" d="M 225.372 383.265 C 172.8 359.315 214.868 101.79 298.594 145.134 C 314.887 94.278 425.644 175.403 359.536 241.286 C 375.385 259.342 325.141 347.215 329.769 383.926 L 230.584 383.926 C 227.276 383.507 225.372 383.265 225.372 383.265 Z"/>
  <path style="stroke: rgb(0, 0, 0); fill: rgb(216, 116, 22); stroke-width: 0px;" d="M 241.88 111.169 C 233.978 117.534 287.857 92.052 334.736 147.905 C 396.583 221.592 304.267 317.541 303.917 317.541 C 303.537 317.541 297.106 361.086 293.759 383.926 L 92.618 383.926 C 86.14 373.12 82.877 349.428 80.756 314.394 C -16.103 259.339 -3.433 115.69 121.364 122.791 C 142.56 91.215 166.862 105.202 171.97 121.192 L 207.018 122.712 Z"/>
  <g transform="matrix(0.737115, 0, 0, 0.737115, 134.899994, 25.686085)" style="">
    <path style="stroke: rgb(0, 0, 0); stroke-width: 0px; paint-order: fill; fill-rule: evenodd; fill: rgb(216, 116, 22); transform-box: fill-box; transform-origin: 67.5765% 62.3489%;" d="M 10.391 78.408 C 18.307 70.262 14.753 71.504 22.717 62.156 C 25.971 58.336 11.305 40.095 15.7 35.754 C 19.449 32.051 42.488 46.055 43.295 39.974 C 43.855 35.757 35.282 18.074 39.306 14.327 C 44.645 9.355 57.988 22.28 67.56 18.224 C 74.003 15.494 68.779 -2.475 76.98 -5.293 C 80.372 -6.459 88.194 0.855 96.711 3.589 C 103.34 5.717 107.242 -19.427 113.928 -19.427 C 122.353 -19.427 131.231 -5.728 137.593 -7.352 C 144.351 -9.077 147.543 -25.392 155.264 -24.087 C 161.347 -23.059 164.045 -8.816 171.385 -5.807 C 176.859 -3.563 190.894 -17.184 196.791 -14.234 C 203.288 -10.983 199.799 3.035 206.452 6.817 C 212.747 10.396 225.858 -3.404 231.965 0.353 C 238.127 4.143 231.3 18.893 236.947 22.567 C 241.785 25.715 254.516 14.1 259.544 17.45 C 262.427 19.371 259.88 28.014 262.893 34.359 C 264.342 37.411 276.951 30.569 278.909 32.485 C 281.923 35.435 275.92 48.649 278.536 50.946 C 286.286 57.754 295.932 55.418 299 59.638 C 302.685 64.707 290.452 70.716 291.795 76.538 C 296.393 96.479 299.713 135.404 216.323 150.243 C 227.026 163.271 217.104 171.06 209.768 171.888 C 204.584 172.474 178.079 173.955 171.989 170.541 C 162.314 167.613 142.581 142.743 135.469 138.071 C -27.444 138.569 45.259 111.084 10.391 78.408 Z"/>
    <g transform="matrix(1, 0, 0, 1, -150.691025, -158.89653)" style="transform-origin: 367.697px 258.584px;">
      <g transform="matrix(0.78393, 0, 0, 0.78393, 524.959351, 230.335922)">
        <ellipse style="stroke: rgb(0, 0, 0); paint-order: stroke; stroke-width: 0px;" cx="20.34" cy="90.046" rx="12.335" ry="12.678" transform="matrix(0.999709, 0.024132, -0.024132, 0.999709, -273.2709, -32.278116)"/>
      </g>
      <path style="stroke: rgb(0, 0, 0); stroke-width: 0px;" d="M 343.332 290.218 C 322.34 290.746 315.064 286.155 315.064 286.155 C 327.961 296.29 339.075 295.284 348.347 295.651 C 344.315 292.604 353.95 289.951 343.332 290.218 Z"/>
      <path style="fill: rgb(216, 216, 216); stroke: rgb(0, 0, 0); fill-opacity: 0; stroke-linecap: round; stroke-width: 0px;" d="M 304.235 258.878 C 304.235 246.69 334.878 249.619 342.873 265.817 C 351.932 273.234 367.779 245.062 371.745 250.241"/>
      <ellipse style="stroke: rgb(0, 0, 0); fill: rgb(255, 255, 255); stroke-opacity: 0; stroke-width: 0px;" cx="330.741" cy="273.684" rx="2.78" ry="4.541"/>
      <ellipse style="stroke: rgb(0, 0, 0); paint-order: stroke; stroke-width: 0px;" cx="20.34" cy="90.046" rx="9.67" ry="9.939" transform="matrix(0.999709, 0.024132, -0.024132, 0.999709, 334.653386, 185.475179)"/>
      <ellipse style="stroke: rgb(0, 0, 0); fill: rgb(255, 255, 255); stroke-opacity: 0; stroke-width: 0px;" cx="358.421" cy="273.684" rx="2.779" ry="4.541"/>
    </g>
    <path style="transform-origin: 126.535px 66.323px; stroke: rgb(52, 44, 207); stroke-width: 0px; fill: rgb(47, 52, 216);" d="M 19.309 41.692 C 15.687 45.317 13.037 56.257 13.037 56.257 C 16.943 56.492 285.459 112.334 282.461 119.008 C 279.463 125.682 293.937 118.015 286.039 106.885 C 278.141 95.755 22.931 38.067 19.309 41.692 Z" transform="matrix(0.981627, -0.190809, 0.190809, 0.981627, -0.000006, 0.000011)"/>
    <rect x="153.544" y="89.347" width="67.51" height="23.046" style="stroke: rgb(0, 0, 0); fill: rgb(216, 116, 22); stroke-width: 0px;"/>
    <path style="stroke: rgb(0, 0, 0);" d="M 191.538 105.466 C 191.538 105.865 190.072 113.75 190.072 113.75 C 190.072 111.871 221.877 107.809 221.877 109.498 C 221.877 108.701 223.768 95.852 223.768 95.852 C 223.693 95.702 191.376 104.744 191.538 105.466 Z"/>
    <path style="stroke: rgb(0, 0, 0);" d="M 153.544 92.493 C 153.544 92.892 153.544 107.557 153.544 107.557 C 157.891 105.963 179.551 110.124 185.495 114.879 C 186.871 116.808 185.779 105.887 185.779 105.887 C 186.269 102.701 154.028 88.95 153.544 92.493 Z"/>
  </g>
  <path style="stroke: rgb(0, 0, 0); fill: rgb(134, 212, 222); transform-box: fill-box; transform-origin: 50% 50%; stroke-width: 0px;" d="M 581.069 195.86 C 586.323 189.321 657.088 181.417 645.844 219.307 C 683.544 292.057 651.154 324.98 645.143 434.92 C 645.143 434.92 614.898 453.571 601.158 443.934 C 580.416 450.983 594.696 469.411 589.22 427.467 C 571.865 388.618 539.33 263.766 565.195 239.805" transform="matrix(-0.681998, 0.731354, -0.731354, -0.681998, -7.353652, -22.406809)"/>
  <ellipse style="paint-order: stroke; stroke: rgb(0, 0, 0); stroke-width: 0px; fill: rgb(118, 185, 194); transform-box: fill-box; transform-origin: 50% 50%;" cx="779.275" cy="592.172" rx="27.688" ry="32.006" transform="matrix(0.981627, -0.190809, 0.190809, 0.981627, 41.006134, -537.659139)"/>
  <path style="stroke: rgb(0, 0, 0); paint-order: fill; stroke-opacity: 0; fill: rgb(134, 212, 222); transform-box: fill-box; transform-origin: 50% 50%;" d="M 1092.173 239.919 C 1078.844 278.914 922.564 251.457 896.437 275.027 C 864.244 304.071 854.03 220.382 810.836 199.558 C 796.746 160.132 822.812 154.754 816.083 109.857 C 798.335 -8.56 966.127 -35.581 1008.137 61.492 C 1018.948 86.472 1014.964 163.505 1014.964 163.505 C 996.666 134.788 1100.845 214.549 1092.173 239.919 Z" transform="matrix(0.981627, -0.190809, 0.190809, 0.981627, -0.012498, -0.05788)"/>
  <ellipse style="fill: rgb(255, 255, 255); paint-order: stroke; stroke-width: 6px; stroke: rgb(255, 255, 255); transform-box: fill-box; transform-origin: 50% 50%;" cx="800.97" cy="659.243" rx="37.878" ry="34.745" transform="matrix(0.981627, -0.190809, 0.190809, 0.981627, 50.797325, -547.750706)"/>
  <ellipse style="fill: rgb(255, 255, 255); paint-order: stroke; stroke-width: 6px; stroke: rgb(255, 255, 255); transform-origin: 893.061px 661.071px;" cx="893.071" cy="661.071" rx="40.416" ry="38.472" transform="matrix(0.981627, -0.190809, 0.190809, 0.981627, 25.05167, -559.668959)"/>
  <path style="fill: rgb(255, 255, 255); paint-order: fill; stroke: rgb(0, 0, 0); stroke-width: 0px; transform-box: fill-box; transform-origin: 50% 50%;" d="M 870.781 150.628 C 870.602 151.107 869.956 158.423 869.956 159.302 C 869.956 159.476 869.886 163.883 869.886 165.021 C 869.886 166.15 869.534 168.472 870.852 172.587 C 871.662 175.129 871.573 175.457 872.642 177.016 C 874.046 179.061 878.308 178.363 880.385 175.607 C 881.98 173.493 881.949 168.143 881.962 167.984 C 882.346 162.942 880.562 156.835 880.562 155.147 C 880.562 154.989 883 151.125 882.491 150.444 C 881.477 149.084 870.852 149.323 870.852 150.628" transform="matrix(0.981627, -0.190809, 0.190809, 0.981627, 0, -0.000005)"/>
  <g transform="matrix(0.604894, -0.117579, 0.117579, 0.604894, 620.452881, -8.98705)" style="transform-origin: 277.141px 109.025px;">
    <g transform="matrix(1, 0, 0, 1, -5.678296, 0.491333)">
      <ellipse style="stroke: rgb(0, 0, 0); paint-order: stroke; stroke-width: 12.6479px;" cx="20.34" cy="90.046" rx="12.335" ry="12.678" transform="matrix(0.999709, 0.024132, -0.024132, 0.999709, 260.816685, 18.074693)"/>
      <ellipse style="stroke: rgb(140, 37, 37); fill: rgb(255, 255, 255); stroke-opacity: 0; paint-order: stroke; stroke-width: 12.6479px;" cx="8.84" cy="101.025" rx="4.968" ry="5.311" transform="matrix(0.999709, 0.024132, -0.024132, 0.999709, 261.361208, 15.799017)"/>
    </g>
  </g>
  <g transform="matrix(0.749005, 0, 0, 0.749005, 107.216995, -352.670929)" style="">
    <ellipse style="stroke: rgb(0, 0, 0); paint-order: stroke; stroke-width: 12.6479px; transform-box: fill-box; transform-origin: 50% 50%;" cx="20.34" cy="90.046" rx="9.67" ry="9.939" transform="matrix(0.985946, -0.167065, 0.167065, 0.985946, 944.798326, 525.763207)"/>
    <ellipse style="stroke: rgb(140, 37, 37); fill: rgb(255, 255, 255); stroke-opacity: 0; paint-order: stroke; stroke-width: 12.6479px; transform-box: fill-box; transform-origin: 50% 50%;" cx="8.84" cy="101.025" rx="3.895" ry="4.163" transform="matrix(0.985946, -0.167065, 0.167065, 0.985946, 949.660671, 522.250738)"/>
  </g>
  <path style="paint-order: stroke; stroke: rgb(0, 0, 0); stroke-width: 0px; fill: rgb(144, 229, 241); transform-origin: 974.948px 26.171px;" d="M 948.97 24.305 C 951.745 -10.884 1007.494 -6.989 997.407 34.978 C 991.598 54.571 968.582 58.495 968.587 52.477" transform="matrix(0.985946, -0.167065, 0.167065, 0.985946, 0, 0.000002)"/>
  <path style="fill: rgb(255, 255, 255); paint-order: fill; stroke: rgb(0, 0, 0); stroke-width: 0px; transform-box: fill-box; transform-origin: 50% 50%;" d="M 884.76 149.322 C 884.614 149.797 884.083 154.716 884.083 155.587 C 884.083 155.762 883.775 160.306 883.775 161.434 C 883.775 162.553 883.352 165.944 884.168 170.142 C 884.707 172.921 884.879 173.573 886.779 175.98 C 888.231 177.82 891.712 175.631 893.416 172.899 C 894.724 170.804 894.955 166.298 894.965 166.139 C 895.28 161.139 895.436 156.762 895.436 155.087 C 895.436 154.928 894.782 149.815 894.363 149.137 C 893.532 147.791 884.818 148.027 884.818 149.32" transform="matrix(0.981627, -0.190809, 0.190809, 0.981627, 0, 0.000006)"/>
  <path d="M 885.398 158.313 C 870.063 159.651 855.261 162.578 858.98 153.422 C 862.7 144.266 869.225 144.187 875.744 144.328 C 878.992 144.397 887.024 144.382 890.218 144.05 C 892.971 143.763 894.124 141.658 902.401 149.328 C 910.678 156.998 905.837 165.413 885.398 158.313 Z" style="fill: rgb(250, 220, 164); paint-order: fill; stroke: rgb(0, 0, 0); stroke-width: 0px; transform-origin: 888.959px 155.509px;" transform="matrix(0.981627, -0.190809, 0.190809, 0.981627, -0.000002, 0.000034)"/>
  <ellipse style="stroke: rgb(0, 0, 0); paint-order: stroke; stroke-width: 6px; transform-box: fill-box; transform-origin: 50% 50%;" cx="834.754" cy="697.026" rx="10.041" ry="5.268" transform="matrix(0.981627, -0.190809, 0.190809, 0.981627, 40.268063, -551.286922)"/>
  <path d="M 979.149 25.776 C 979.149 31.54 975.548 36.214 971.106 36.214 C 970.816 36.214 970.532 36.194 970.251 36.155 C 970.228 31.193 967.272 26.942 963.077 25.148 C 963.327 19.674 966.825 15.338 971.106 15.338 C 975.548 15.338 979.149 20.01 979.149 25.776 Z" style="stroke: rgb(0, 0, 0); transform-box: fill-box; transform-origin: 50% 50%;" transform="matrix(0.981627, -0.190809, 0.190809, 0.981627, 0, -0.000001)"/>
  <path style="fill: rgb(216, 216, 216); fill-opacity: 0; stroke: rgb(251, 132, 4); stroke-width: 4px;" d="M 271.212 191.544 L 271.212 190.787 C 277.836 201.196 269.173 258.37 265.676 252.874"/>
  <path style="stroke: rgb(0, 0, 0); stroke-width: 0px; fill: rgb(188, 97, 12); transform-box: fill-box; transform-origin: 50% 50%;" d="M 163.527 274.728 C 151.964 288.609 76.118 283.942 71.108 231.585 C 68.293 219.731 30.483 211.686 25.751 198.9 C 35.588 98.676 62.871 147.898 94.629 128.858 C 167.534 128.115 205.553 160.958 216.73 182.048 C 366.257 164.16 347.28 360.607 246.132 355.9 C 200.776 353.789 157.387 318.025 163.527 274.728 Z" transform="matrix(-1, 0, 0, -1, 0.00003, 0.000016)"/>
  <path style="fill: rgb(216, 216, 216); fill-opacity: 0; stroke-linecap: round; stroke: rgb(226, 215, 215);" d="M 885.884 129.136 C 866.465 111.802 872.297 82.599 876.385 86.044"/>
  <path style="stroke: rgb(0, 0, 0); fill: rgb(250, 220, 164); stroke-width: 0px;" d="M 495.737 249.341 C 495.737 249.341 465.882 238.61 465.882 237.507 C 465.882 236.405 458.94 173.095 458.94 173.095 C 458.94 173.095 498.362 160.487 499.465 163.244 C 500.568 166.001 518.857 192.875 526.909 204.945 C 534.961 217.015 494.211 252.007 495.737 249.341 Z"/>
  <g transform="matrix(1, 0, 0, 1, -1.639142, -8.176125)" style="transform-origin: 310.639px 314.176px;">
    <g>
      <g>
        <path style="stroke: rgb(0, 0, 0); stroke-width: 0px; fill: rgb(188, 97, 12); transform-origin: 370.192px 286.924px;" d="M 349.046 395.276 C 350.323 393.726 373.571 403.11 394.741 379.371 C 428.277 316.31 418.709 282.228 411.856 175.079 C 411.856 175.079 406.335 160.852 390.267 170.49 C 366.009 163.441 361.34 164.263 354.936 206.207 C 324.84 276.799 275.836 335.362 306.084 359.324" transform="matrix(0.669131, 0.743145, -0.743145, 0.669131, -0.000008, -0.00002)"/>
        <path style="stroke: rgb(0, 0, 0); fill: rgb(188, 97, 12); stroke-width: 0px;" d="M 467.791 255.904 C 468.725 257.954 498.443 217.066 511.867 220.418 C 527.477 224.316 590.81 200.274 585.354 138.652 C 584.426 126.667 505.042 179.862 500.617 170.316 C 498.839 170.905 550.616 97.607 549.774 100.023 C 540.096 85.298 468.993 95.961 468.993 146.877 C 468.993 159.043 440.611 204.55 442.077 213.633 C 434.93 221.633 466.939 247.904 467.791 255.904 Z"/>
      </g>
    </g>
  </g>
  <path style="stroke: rgb(0, 0, 0); fill: rgb(250, 220, 164); stroke-width: 0px;" d="M 463.674 153.051 C 432.221 150.953 423.379 211.042 436.109 211.042 C 448.839 211.042 464.45 222.507 468.993 219.057 C 470.145 218.182 494.105 174.086 484.249 170.316 C 474.808 166.704 464.357 152.026 463.674 153.051 Z"/>
  <path style="fill: rgb(216, 216, 216); fill-opacity: 0; stroke: rgb(251, 132, 4); stroke-width: 3px; transform-origin: 266.606px 143.349px;" d="M 232.557 154.729 C 234.091 157.378 252.497 147.745 250.21 146.899 C 241.877 134.447 264.489 131.817 264.168 136.644 C 273.461 122.269 286.896 132.796 284.661 141.173 C 283.069 148.108 325.711 136.62 344.157 146.986" transform="matrix(-0.981627, -0.190809, 0.190809, -0.981627, 0.000047, -0.000012)"/>
  <path style="fill: rgb(216, 216, 216); fill-opacity: 0; stroke-width: 4px; stroke: rgb(195, 226, 251);" d="M 903.901 284.997 C 903.901 255.146 990.433 265.289 1011.966 222.641"/>
  <path style="fill: rgb(216, 216, 216); fill-opacity: 0; stroke-width: 4px; stroke: rgb(195, 226, 251);" d="M 877.696 287.185 C 873.087 269.728 861.818 287.387 831.279 246.912"/>
  <path style="fill: rgb(216, 216, 216); fill-opacity: 0; stroke-width: 4px; stroke: rgb(195, 226, 251);" d="M 891.254 305.763 C 888.954 337.957 906.279 377.952 906.555 374.086"/>
  <path style="stroke: rgb(0, 0, 0); stroke-width: 0px; fill: rgb(235, 206, 151);" d="M 453.773 154.036 C 453.773 154.036 453.892 156.71 455.489 158.653 C 457.086 160.596 470.681 168.404 473.782 155.92 C 476.883 143.436 456.144 139.898 453.773 154.036 Z"/>
  <path style="stroke: rgb(106, 84, 84); stroke-width: 0px; fill: rgb(134, 212, 222);" d="M 961.233 81.265 C 961.014 78.808 901.732 83.561 872.264 99.024 C 842.704 93.822 807.351 102.428 808.044 102.655 C 807.163 102.262 813.147 89.396 813.474 89.541 C 813.474 89.541 947.668 70.411 948.141 70.158 C 948.614 69.904 962.135 80.584 961.233 81.265 Z"/>
  <path style="stroke: rgb(0, 0, 0); fill: rgb(149, 3, 3); stroke-width: 0px; transform-box: fill-box; transform-origin: 50% 50%;" d="M 809.098 55.666 C 800.242 53.339 794.274 71.383 800.14 76.238 C 801.345 82.896 996.764 88.56 998.605 82.368 C 1000.447 76.177 1005.691 71.2 996.214 63.336 C 986.737 55.472 817.954 57.993 809.098 55.666 Z" transform="matrix(0.981627, -0.190809, 0.190809, 0.981627, -0.025875, 0.404829)"/>
  <path d="M 1044.85 274.497 C 1044.85 243.15 1063.802 177.521 1129.992 177.521 C 1203.43 177.521 1222.826 258.949 1227.489 286.478 C 1274.297 303.856 1292.086 349.209 1297.775 381.434 L 1141.609 381.434 C 1138.182 374.936 1137.194 368.434 1139.73 362.192 C 1103.614 361.022 1044.85 305.098 1044.85 274.497 Z" style="stroke: rgb(0, 0, 0); fill: rgb(134, 212, 222); stroke-width: 0px;"/>
</svg>